<?xml version="1.0" encoding="UTF-8"?>
<!DOCTYPE svg PUBLIC "-//W3C//DTD SVG 1.1//EN" "http://www.w3.org/Graphics/SVG/1.1/DTD/svg11.dtd">
<!-- Creator: CorelDRAW X8 -->
<svg xmlns="http://www.w3.org/2000/svg" xml:space="preserve" width="210mm" height="297mm" version="1.1" style="shape-rendering:geometricPrecision; text-rendering:geometricPrecision; image-rendering:optimizeQuality; fill-rule:evenodd; clip-rule:evenodd"
viewBox="0 0 21000 29700"
 xmlns:xlink="http://www.w3.org/1999/xlink">
 <defs>
  <style type="text/css">
   <![CDATA[
    .fil1 {fill:#2E1C88}
    .fil2 {fill:#5034BD}
    .fil3 {fill:#7A60DB}
    .fil0 {fill:#EFEFF7}
   ]]>
  </style>
 </defs>
 <g id="Layer_x0020_1">
  <metadata id="CorelCorpID_0Corel-Layer"/>
  <g id="_582310872">
   <path class="fil0" d="M4892 12082l11216 0c-1458,1983 -1815,2777 -5797,1768 -1667,-423 -2353,1842 -5357,3768l-62 -5536z"/>
   <path class="fil1" d="M4926 12082l10248 4c-1677,1640 -2874,1438 -3232,1427 -469,-14 -1248,-258 -1756,-330 -154,-22 -599,-49 -874,31 -569,166 -1128,778 -1619,1263 -759,750 -2070,1920 -2754,2031l-13 -4426z"/>
   <path class="fil2" d="M4902 12082l8934 4c-1310,1781 -3189,226 -5121,788 -429,124 -778,493 -1082,739 -1247,1009 -2188,968 -2701,668l-30 -2199z"/>
   <path class="fil3" d="M4892 12082l6615 3c-1540,572 -1303,24 -3235,586 -1280,372 -2385,1608 -3347,1045l-33 -1634z"/>
  </g>
 </g>
</svg>
