<?xml version="1.0" encoding="UTF-8"?>
<!DOCTYPE svg PUBLIC "-//W3C//DTD SVG 1.1//EN" "http://www.w3.org/Graphics/SVG/1.1/DTD/svg11.dtd">
<!-- Creator: CorelDRAW X8 -->
<svg xmlns="http://www.w3.org/2000/svg" xml:space="preserve" width="210mm" height="297mm" version="1.1" style="shape-rendering:geometricPrecision; text-rendering:geometricPrecision; image-rendering:optimizeQuality; fill-rule:evenodd; clip-rule:evenodd"
viewBox="0 0 21000 29700"
 xmlns:xlink="http://www.w3.org/1999/xlink">
 <defs>
  <style type="text/css">
   <![CDATA[
    .fil0 {fill:none}
    .fil1 {fill:#3620A9}
    .fil2 {fill:#432EAD}
   ]]>
  </style>
    <clipPath id="id0">
     <path d="M10864 12949c815,-195 1375,-429 1878,-56 472,349 883,1560 913,2059 66,1072 -594,2129 -1443,2247 -1009,139 -1600,-1220 -2307,-1281 -353,-31 -980,32 -1441,-71 -313,-70 -514,-262 -638,-433 -218,-298 -349,-759 -349,-1534 0,-181 567,-1285 1219,-1328 297,-19 472,-54 701,63 579,296 718,513 1467,334z"/>
    </clipPath>
     <clipPath id="id1">
      <path d="M10864 12949c815,-195 1375,-429 1878,-56 472,349 883,1560 913,2059 66,1072 -594,2129 -1443,2247 -1009,139 -1600,-1220 -2307,-1281 -353,-31 -980,32 -1441,-71 -313,-70 -514,-262 -638,-433 -218,-298 -349,-759 -349,-1534 0,-181 567,-1285 1219,-1328 297,-19 472,-54 701,63 579,296 718,513 1467,334z"/>
     </clipPath>
     <clipPath id="id2">
      <path d="M10864 12949c815,-195 1375,-429 1878,-56 472,349 883,1560 913,2059 66,1072 -594,2129 -1443,2247 -1009,139 -1600,-1220 -2307,-1281 -353,-31 -980,32 -1441,-71 -313,-70 -514,-262 -638,-433 -218,-298 -349,-759 -349,-1534 0,-181 567,-1285 1219,-1328 297,-19 472,-54 701,63 579,296 718,513 1467,334z"/>
     </clipPath>
 </defs>
 <g id="Layer_x0020_1">
  <metadata id="CorelCorpID_0Corel-Layer"/>
  <g id="_584641776">
   <g>
   </g>
   <g style="clip-path:url(#id0)">
    <g id="_584642568">
    </g>
    <g style="clip-path:url(#id1)">
     <image x="7314" y="11854" width="6656" height="6656" xlink:href="2FA3_Images\2FA3_ImgID1.png"/>
    </g>
    <g style="clip-path:url(#id2)">
    </g>
   </g>
   <path class="fil0" d="M10864 12949c815,-195 1375,-429 1878,-56 472,349 883,1560 913,2059 66,1072 -594,2129 -1443,2247 -1009,139 -1600,-1220 -2307,-1281 -353,-31 -980,32 -1441,-71 -313,-70 -514,-262 -638,-433 -218,-298 -349,-759 -349,-1534 0,-181 567,-1285 1219,-1328 297,-19 472,-54 701,63 579,296 718,513 1467,334z"/>
   <path class="fil1" d="M10579 12803c-9,-7 -154,-27 -163,-33 -704,-491 197,-185 325,-179 178,8 347,-56 421,-21 122,57 -174,249 -583,233z"/>
   <path class="fil1" d="M13751 13468c-28,288 -200,80 -352,-151 -244,-372 399,-349 352,151z"/>
   <ellipse class="fil2" transform="matrix(1.24658 0.463797 -0.294602 0.791826 7353.69 15392)" rx="83" ry="96"/>
  </g>
 </g>
</svg>
